<?xml version="1.0" encoding="utf-8"?>
<!-- Generator: Adobe Illustrator 18.1.1, SVG Export Plug-In . SVG Version: 6.00 Build 0)  -->
<svg version="1.1" id="Layer_1" xmlns="http://www.w3.org/2000/svg" xmlns:xlink="http://www.w3.org/1999/xlink" x="0px" y="0px"
	 width="234px" height="120px" viewBox="0 0 234 120" enable-background="new 0 0 234 120" xml:space="preserve">
<g id="Matrix">
	<g id="Row_3">
		<rect x="193" y="89" fill="#DEDDDE" stroke="#000000" stroke-miterlimit="10" width="22" height="22"/>
		<rect x="157.5" y="88.5" fill="#DEDDDE" width="35" height="23"/>
		<rect x="135" y="89" fill="#DEDDDE" stroke="#000000" stroke-miterlimit="10" width="22" height="22"/>
		<rect x="99.5" y="88.5" fill="#DEDDDE" width="35" height="23"/>
		<rect x="77" y="89" fill="#DEDDDE" stroke="#000000" stroke-miterlimit="10" width="22" height="22"/>
		<rect x="41.5" y="88.5" fill="#DEDDDE" width="35" height="23"/>
		<rect x="19" y="89" fill="#DEDDDE" stroke="#000000" stroke-miterlimit="10" width="22" height="22"/>
	</g>
	<g id="Row_2">
		<rect x="193" y="49" fill="#DEDDDE" stroke="#000000" stroke-miterlimit="10" width="22" height="22"/>
		<rect x="157.5" y="48.5" fill="#DEDDDE" width="35" height="23"/>
		<rect x="135" y="49" fill="#DEDDDE" stroke="#000000" stroke-miterlimit="10" width="22" height="22"/>
		<rect x="99.5" y="48.5" fill="#DEDDDE" width="35" height="23"/>
		<rect x="77" y="49" fill="#DEDDDE" stroke="#000000" stroke-miterlimit="10" width="22" height="22"/>
		<rect x="41.5" y="48.5" fill="#DEDDDE" width="35" height="23"/>
		<rect x="19" y="49" fill="#DEDDDE" stroke="#000000" stroke-miterlimit="10" width="22" height="22"/>
	</g>
	<g id="Row_1">
		<rect x="193" y="9" fill="#DEDDDE" stroke="#000000" stroke-miterlimit="10" width="22" height="22"/>
		<rect x="157.5" y="8.5" fill="#DEDDDE" width="35" height="23"/>
		<rect x="135" y="9" fill="#DEDDDE" stroke="#000000" stroke-miterlimit="10" width="22" height="22"/>
		<rect x="99.5" y="8.5" fill="#DEDDDE" width="35" height="23"/>
		<rect x="77" y="9" fill="#DEDDDE" stroke="#000000" stroke-miterlimit="10" width="22" height="22"/>
		<rect x="41.5" y="8.5" fill="#DEDDDE" width="35" height="23"/>
		<rect x="19" y="9" fill="#DEDDDE" stroke="#000000" stroke-miterlimit="10" width="22" height="22"/>
	</g>
	<g id="rightBracket">
		<polyline fill="none" stroke="#000000" stroke-width="2" stroke-miterlimit="10" points="225.5,119 233,119 233,111.5 		"/>
		<line fill="none" stroke="#000000" stroke-width="2" stroke-miterlimit="10" x1="233" y1="88.5" x2="233" y2="111.5"/>
		<line fill="none" stroke="#000000" stroke-width="2" stroke-miterlimit="10" x1="233" y1="71.5" x2="233" y2="88.5"/>
		<line fill="none" stroke="#000000" stroke-width="2" stroke-miterlimit="10" x1="233" y1="48.5" x2="233" y2="71.5"/>
		<line fill="none" stroke="#000000" stroke-width="2" stroke-miterlimit="10" x1="233" y1="31.5" x2="233" y2="48.5"/>
		<line fill="none" stroke="#000000" stroke-width="2" stroke-miterlimit="10" x1="233" y1="8.5" x2="233" y2="31.5"/>
		<polyline fill="none" stroke="#000000" stroke-width="2" stroke-miterlimit="10" points="225.5,1 233,1 233,8.5 		"/>
	</g>
	<g id="midBracket">
		<line fill="none" stroke="#000000" stroke-width="2" stroke-miterlimit="10" x1="174" y1="111.5" x2="174" y2="120"/>
		<line fill="none" stroke="#000000" stroke-width="2" stroke-miterlimit="10" x1="174" y1="88.5" x2="174" y2="111.5"/>
		<line fill="none" stroke="#000000" stroke-width="2" stroke-miterlimit="10" x1="174" y1="71.5" x2="174" y2="88.5"/>
		<line fill="none" stroke="#000000" stroke-width="2" stroke-miterlimit="10" x1="174" y1="48.5" x2="174" y2="71.5"/>
		<line fill="none" stroke="#000000" stroke-width="2" stroke-miterlimit="10" x1="174" y1="31.5" x2="174" y2="48.5"/>
		<line fill="none" stroke="#000000" stroke-width="2" stroke-miterlimit="10" x1="174" y1="8.5" x2="174" y2="31.5"/>
		<line fill="none" stroke="#000000" stroke-width="2" stroke-miterlimit="10" x1="174" y1="0" x2="174" y2="8.5"/>
	</g>
	<g id="leftBracket">
		<polyline fill="none" stroke="#000000" stroke-width="2" stroke-miterlimit="10" points="8.5,119 1,119 1,111.5 		"/>
		<line fill="none" stroke="#000000" stroke-width="2" stroke-miterlimit="10" x1="1" y1="88.5" x2="1" y2="111.5"/>
		<line fill="none" stroke="#000000" stroke-width="2" stroke-miterlimit="10" x1="1" y1="71.5" x2="1" y2="88.5"/>
		<line fill="none" stroke="#000000" stroke-width="2" stroke-miterlimit="10" x1="1" y1="48.5" x2="1" y2="71.5"/>
		<line fill="none" stroke="#000000" stroke-width="2" stroke-miterlimit="10" x1="1" y1="31.5" x2="1" y2="48.5"/>
		<line fill="none" stroke="#000000" stroke-width="2" stroke-miterlimit="10" x1="1" y1="8.5" x2="1" y2="31.5"/>
		<polyline fill="none" stroke="#000000" stroke-width="2" stroke-miterlimit="10" points="8.5,1 1,1 1,8.5 		"/>
	</g>
</g>
</svg>
