<?xml version="1.0" encoding="utf-8"?>
<!-- Generator: Adobe Illustrator 18.1.1, SVG Export Plug-In . SVG Version: 6.00 Build 0)  -->
<svg version="1.1" id="Layer_1" xmlns="http://www.w3.org/2000/svg" xmlns:xlink="http://www.w3.org/1999/xlink" x="0px" y="0px"
	 width="349px" height="279px" viewBox="0 0 349 279" enable-background="new 0 0 349 279" xml:space="preserve">
<g>
	<defs>
		<rect id="SVGID_1_" width="349" height="279"/>
	</defs>
	<clipPath id="SVGID_2_">
		<use xlink:href="#SVGID_1_"  overflow="visible"/>
	</clipPath>
	<polyline clip-path="url(#SVGID_2_)" fill="none" stroke="#010101" stroke-miterlimit="10" points="80.1,87.6 87.2,91.1 73,94.7 
		87.2,98.2 73,101.7 87.2,105.3 73,108.8 87.2,112.4 73,115.9 87.2,119.5 80.1,123 	"/>
	<polyline clip-path="url(#SVGID_2_)" fill="none" stroke="#010101" stroke-miterlimit="10" points="80.1,195.6 87.2,199.1 
		73,202.7 87.2,206.2 73,209.7 87.2,213.3 73,216.8 87.2,220.4 73,223.9 87.2,227.5 80.1,231 	"/>
	<polyline clip-path="url(#SVGID_2_)" fill="none" stroke="#010101" stroke-miterlimit="10" points="145,148.1 148.5,155.2 
		152.1,141 155.6,155.2 159.2,141 162.7,155.2 166.3,141 169.8,155.2 173.4,141 176.9,155.2 180.4,148.1 	"/>
	<polyline clip-path="url(#SVGID_2_)" fill="none" stroke="#010101" stroke-miterlimit="10" points="269.1,87.6 276.2,91.1 
		262,94.7 276.2,98.2 262,101.7 276.2,105.3 262,108.8 276.2,112.4 262,115.9 276.2,119.5 269.1,123 	"/>
	<polyline clip-path="url(#SVGID_2_)" fill="none" stroke="#081D3F" stroke-miterlimit="10" points="170,66 180,66.2 190,66 	"/>
	
		<line clip-path="url(#SVGID_2_)" fill="none" stroke="#081D3F" stroke-miterlimit="10" x1="173.4" y1="70.5" x2="186.2" y2="70.5"/>
	
		<line clip-path="url(#SVGID_2_)" fill="none" stroke="#081D3F" stroke-miterlimit="10" x1="176.8" y1="74.5" x2="182.8" y2="74.5"/>
	
		<line clip-path="url(#SVGID_2_)" fill="none" stroke="#010101" stroke-linejoin="round" stroke-miterlimit="10" x1="180.5" y1="60" x2="180.5" y2="66.2"/>
	<polyline clip-path="url(#SVGID_2_)" fill="none" stroke="#081D3F" stroke-miterlimit="10" points="170,230.7 180,230.9 190,230.7 
			"/>
	
		<line clip-path="url(#SVGID_2_)" fill="none" stroke="#081D3F" stroke-miterlimit="10" x1="173.4" y1="235.5" x2="186.2" y2="235.5"/>
	
		<line clip-path="url(#SVGID_2_)" fill="none" stroke="#081D3F" stroke-miterlimit="10" x1="176.8" y1="239.5" x2="182.8" y2="239.5"/>
	
		<line clip-path="url(#SVGID_2_)" fill="none" stroke="#010101" stroke-linejoin="round" stroke-miterlimit="10" x1="180.5" y1="224.7" x2="180.5" y2="230.9"/>
	<polyline clip-path="url(#SVGID_2_)" fill="none" stroke="#010101" stroke-miterlimit="10" points="80.5,87.6 80.5,80.6 80.5,50.5 
		81,50.5 180.5,50.5 180.5,53 180.5,60 	"/>
	<polyline clip-path="url(#SVGID_2_)" fill="none" stroke="#010101" stroke-miterlimit="10" points="180,50.5 187,50.5 269.5,50.5 
		269.5,80.6 269.5,87.6 	"/>
	<polyline clip-path="url(#SVGID_2_)" fill="none" stroke="#010101" stroke-miterlimit="10" points="80.5,123 80.5,130 80.5,148.5 
		138,148.5 145,148.5 	"/>
	<polyline clip-path="url(#SVGID_2_)" fill="none" stroke="#010101" stroke-miterlimit="10" points="180.4,148.5 187.4,148.5 
		269.5,148.5 269.5,130 269.5,123 	"/>
	<polyline clip-path="url(#SVGID_2_)" fill="none" stroke="#010101" stroke-miterlimit="10" points="269.5,123 269.5,130 
		269.5,240.5 199,240.5 	"/>
	<polyline clip-path="url(#SVGID_2_)" fill="none" stroke="#010101" stroke-miterlimit="10" points="80.5,195.6 80.5,188.6 
		80.5,130 80.5,123 	"/>
	<polyline clip-path="url(#SVGID_2_)" fill="none" stroke="#010101" stroke-miterlimit="10" points="80.5,231 80.5,238 80.5,240.5 
		206.8,240.5 213.8,240.5 	"/>
	<g clip-path="url(#SVGID_2_)">
		<path d="M183.4,29.2c-0.6-0.4-1.3-0.6-2.1-0.6c-0.7,0-1.3,0.1-1.8,0.4c-0.5,0.3-0.9,0.6-1.2,1s-0.5,0.9-0.7,1.5
			c-0.1,0.6-0.2,1.1-0.2,1.7c0,0.7,0.1,1.3,0.2,1.8c0.1,0.6,0.4,1.1,0.7,1.5c0.3,0.4,0.7,0.8,1.2,1c0.5,0.3,1.1,0.4,1.8,0.4
			c0.5,0,0.9-0.1,1.3-0.2c0.4-0.2,0.7-0.4,1-0.7c0.3-0.3,0.5-0.6,0.7-1s0.3-0.8,0.3-1.3h1.5c-0.1,1.4-0.6,2.6-1.5,3.4
			c-0.8,0.8-2,1.2-3.5,1.2c-0.9,0-1.7-0.2-2.3-0.5c-0.7-0.3-1.2-0.7-1.6-1.3c-0.4-0.5-0.8-1.2-1-1.9c-0.2-0.7-0.3-1.5-0.3-2.3
			s0.1-1.6,0.4-2.3c0.2-0.7,0.6-1.4,1-1.9c0.5-0.5,1-1,1.7-1.3c0.7-0.3,1.5-0.5,2.3-0.5c0.6,0,1.2,0.1,1.7,0.2
			c0.5,0.2,1,0.4,1.4,0.7s0.8,0.7,1,1.2s0.5,1,0.5,1.6h-1.5C184.4,30.2,184,29.6,183.4,29.2z"/>
	</g>
	<g clip-path="url(#SVGID_2_)">
		<path d="M178.5,258.6c1.8,0,3.1,0.4,4.1,1.3c0.9,0.9,1.4,2.3,1.4,4.1c0,1-0.1,1.8-0.3,2.6s-0.5,1.4-1,1.9c-0.4,0.5-1,0.9-1.7,1.2
			c-0.7,0.3-1.5,0.4-2.5,0.4h-3.9v-11.4H178.5z M178.7,268.7c0.2,0,0.4,0,0.6,0c0.3,0,0.5-0.1,0.8-0.2s0.6-0.2,0.9-0.4
			c0.3-0.2,0.5-0.5,0.8-0.8c0.2-0.3,0.4-0.7,0.6-1.2c0.1-0.5,0.2-1.1,0.2-1.8c0-0.7-0.1-1.3-0.2-1.8c-0.1-0.5-0.4-1-0.7-1.4
			c-0.3-0.4-0.7-0.7-1.2-0.9s-1.1-0.3-1.8-0.3h-2.6v8.9H178.7z"/>
	</g>
	<g clip-path="url(#SVGID_2_)">
		<path d="M280,144.6c0.2,0,0.5,0,0.8,0c0.3,0,0.6,0,0.8,0c0.3,0,0.5,0.1,0.8,0.1c0.2,0.1,0.4,0.1,0.6,0.2c0.4,0.2,0.7,0.5,1,0.9
			c0.3,0.4,0.4,0.9,0.4,1.5c0,0.6-0.1,1.1-0.4,1.6s-0.7,0.8-1.3,1v0c0.7,0.1,1.2,0.5,1.6,1c0.4,0.5,0.6,1.1,0.6,1.8
			c0,0.4-0.1,0.8-0.2,1.2c-0.1,0.4-0.4,0.7-0.7,1c-0.3,0.3-0.7,0.5-1.1,0.7c-0.4,0.2-0.9,0.3-1.5,0.3h-5.5v-11.4H280z M280.4,149.5
			c0.9,0,1.5-0.2,1.9-0.5c0.4-0.3,0.6-0.8,0.6-1.4c0-0.4-0.1-0.7-0.2-1c-0.1-0.2-0.3-0.4-0.5-0.5s-0.5-0.2-0.8-0.2s-0.6-0.1-0.9-0.1
			h-3v3.6H280.4z M281.2,154.7c0.7,0,1.2-0.2,1.6-0.5c0.4-0.4,0.6-0.9,0.6-1.5c0-0.4-0.1-0.7-0.2-0.9c-0.1-0.2-0.3-0.4-0.6-0.6
			c-0.2-0.1-0.5-0.2-0.8-0.3s-0.6-0.1-0.9-0.1h-3.5v4H281.2z"/>
	</g>
	<g clip-path="url(#SVGID_2_)">
		<path d="M63.3,141.6l4.5,11.4h-1.7l-1.2-3.4h-4.8l-1.3,3.4h-1.6l4.4-11.4H63.3z M64.4,148.3l-1.9-5.3h0l-1.9,5.3H64.4z"/>
	</g>
	<rect x="266.5" y="146.2" clip-path="url(#SVGID_2_)" fill="#010101" width="5" height="5"/>
	<rect x="78.7" y="146" clip-path="url(#SVGID_2_)" fill="#010101" width="5" height="5"/>
	<rect x="178" y="49" clip-path="url(#SVGID_2_)" fill="#010101" width="5" height="5"/>
	<rect x="174.5" y="238" clip-path="url(#SVGID_2_)" fill="#010101" width="5" height="5"/>
	<g clip-path="url(#SVGID_2_)">
		<path d="M156.8,83.3c0.2-0.4,0.4-0.7,0.7-0.9s0.7-0.4,1.1-0.6c0.4-0.1,0.8-0.2,1.3-0.2c0.6,0,1.1,0.1,1.6,0.2
			c0.4,0.2,0.8,0.4,1.1,0.7c0.3,0.3,0.5,0.6,0.6,0.9c0.1,0.3,0.2,0.7,0.2,1.1c0,0.5-0.1,1-0.4,1.4c-0.3,0.4-0.7,0.7-1.1,1
			c0.7,0.2,1.2,0.6,1.5,1s0.5,1.1,0.5,1.8c0,0.6-0.1,1-0.3,1.5s-0.5,0.8-0.8,1.1s-0.7,0.5-1.2,0.7s-0.9,0.2-1.5,0.2
			c-0.5,0-1.1-0.1-1.5-0.2c-0.5-0.1-0.9-0.4-1.2-0.6s-0.6-0.6-0.8-1.1c-0.2-0.4-0.3-0.9-0.3-1.5c0-0.7,0.2-1.3,0.5-1.8
			s0.8-0.9,1.5-1.1c-0.5-0.2-0.9-0.5-1.2-0.9c-0.3-0.4-0.4-0.9-0.4-1.4C156.5,84.1,156.6,83.7,156.8,83.3z M158.2,91.4
			c0.5,0.4,1,0.6,1.7,0.6c0.3,0,0.7-0.1,0.9-0.2c0.3-0.1,0.5-0.3,0.7-0.5s0.4-0.4,0.5-0.7s0.2-0.6,0.2-0.9c0-0.3-0.1-0.6-0.2-0.9
			c-0.1-0.3-0.3-0.5-0.5-0.7s-0.5-0.3-0.7-0.5s-0.6-0.2-0.9-0.2c-0.3,0-0.6,0.1-0.9,0.2s-0.5,0.2-0.8,0.4c-0.2,0.2-0.4,0.4-0.5,0.7
			c-0.1,0.3-0.2,0.6-0.2,0.9C157.5,90.5,157.7,91,158.2,91.4z M158.1,85.4c0.1,0.2,0.3,0.4,0.4,0.6c0.2,0.2,0.4,0.3,0.6,0.3
			c0.2,0.1,0.5,0.1,0.8,0.1c0.5,0,1-0.2,1.3-0.5c0.4-0.3,0.5-0.8,0.5-1.3c0-0.6-0.2-1-0.5-1.3c-0.4-0.3-0.8-0.4-1.4-0.4
			c-0.3,0-0.5,0-0.8,0.1c-0.2,0.1-0.5,0.2-0.6,0.3c-0.2,0.1-0.3,0.3-0.4,0.5c-0.1,0.2-0.2,0.5-0.2,0.8
			C157.9,84.9,158,85.2,158.1,85.4z"/>
		<path d="M172.1,93l-3.1-8.3h1.5l2.3,6.9h0l2.3-6.9h1.4l-3,8.3H172.1z"/>
		<path d="M177.6,87.2c0.2-0.5,0.4-1,0.8-1.4c0.3-0.4,0.8-0.7,1.3-0.9s1.1-0.3,1.7-0.3c0.7,0,1.2,0.1,1.7,0.3s0.9,0.5,1.3,0.9
			s0.6,0.8,0.8,1.4c0.2,0.5,0.3,1.1,0.3,1.7s-0.1,1.2-0.3,1.7c-0.2,0.5-0.4,1-0.8,1.4c-0.3,0.4-0.8,0.7-1.3,0.9
			c-0.5,0.2-1.1,0.3-1.7,0.3c-0.7,0-1.2-0.1-1.7-0.3c-0.5-0.2-0.9-0.5-1.3-0.9c-0.3-0.4-0.6-0.8-0.8-1.4c-0.2-0.5-0.3-1.1-0.3-1.7
			S177.4,87.7,177.6,87.2z M179,90.2c0.1,0.4,0.3,0.7,0.6,1c0.2,0.3,0.5,0.5,0.8,0.6c0.3,0.1,0.6,0.2,1,0.2c0.4,0,0.7-0.1,1-0.2
			c0.3-0.1,0.6-0.3,0.8-0.6c0.2-0.3,0.4-0.6,0.6-1s0.2-0.8,0.2-1.3s-0.1-0.9-0.2-1.3s-0.3-0.7-0.6-1c-0.2-0.3-0.5-0.5-0.8-0.6
			c-0.3-0.1-0.6-0.2-1-0.2c-0.4,0-0.7,0.1-1,0.2c-0.3,0.1-0.6,0.3-0.8,0.6c-0.2,0.3-0.4,0.6-0.6,1s-0.2,0.8-0.2,1.3
			S178.9,89.8,179,90.2z"/>
		<path d="M188.4,81.6V93h-1.4V81.6H188.4z"/>
		<path d="M194.1,84.7v1.2h-1.6v5.1c0,0.2,0,0.3,0,0.4c0,0.1,0.1,0.2,0.2,0.2c0.1,0.1,0.2,0.1,0.3,0.1c0.1,0,0.3,0,0.5,0h0.6V93h-1
			c-0.4,0-0.7,0-0.9-0.1s-0.5-0.1-0.6-0.3s-0.3-0.3-0.3-0.5s-0.1-0.5-0.1-0.9v-5.3h-1.4v-1.2h1.4v-2.5h1.4v2.5H194.1z"/>
		<path d="M196.6,91.2c0.1,0.2,0.3,0.4,0.5,0.5c0.2,0.1,0.4,0.2,0.7,0.3c0.3,0.1,0.5,0.1,0.8,0.1c0.2,0,0.4,0,0.7,0
			c0.2,0,0.5-0.1,0.6-0.2c0.2-0.1,0.4-0.2,0.5-0.4c0.1-0.2,0.2-0.4,0.2-0.6c0-0.4-0.1-0.6-0.4-0.8c-0.3-0.2-0.6-0.3-1-0.4
			c-0.4-0.1-0.8-0.2-1.3-0.3c-0.5-0.1-0.9-0.2-1.3-0.4c-0.4-0.2-0.7-0.4-1-0.7c-0.3-0.3-0.4-0.7-0.4-1.2c0-0.4,0.1-0.8,0.3-1.1
			c0.2-0.3,0.4-0.5,0.7-0.7s0.6-0.3,1-0.4s0.7-0.1,1.1-0.1c0.5,0,0.9,0,1.3,0.1s0.7,0.2,1,0.4c0.3,0.2,0.5,0.5,0.7,0.8
			c0.2,0.3,0.3,0.8,0.3,1.3h-1.4c0-0.3-0.1-0.5-0.2-0.7c-0.1-0.2-0.3-0.3-0.4-0.4s-0.4-0.2-0.6-0.2c-0.2,0-0.4-0.1-0.7-0.1
			c-0.2,0-0.4,0-0.6,0s-0.4,0.1-0.6,0.2c-0.2,0.1-0.3,0.2-0.4,0.3c-0.1,0.1-0.2,0.3-0.2,0.5c0,0.2,0.1,0.4,0.2,0.6
			c0.2,0.2,0.4,0.3,0.6,0.4c0.3,0.1,0.5,0.2,0.9,0.3c0.3,0.1,0.6,0.1,1,0.2c0.3,0.1,0.7,0.2,1,0.3c0.3,0.1,0.6,0.2,0.9,0.4
			c0.2,0.2,0.5,0.4,0.6,0.7s0.2,0.6,0.2,1c0,0.5-0.1,0.9-0.3,1.2c-0.2,0.3-0.5,0.6-0.8,0.8c-0.3,0.2-0.7,0.3-1.1,0.4
			s-0.8,0.1-1.3,0.1c-0.5,0-0.9,0-1.3-0.1c-0.4-0.1-0.8-0.3-1.1-0.5c-0.3-0.2-0.6-0.5-0.8-0.9c-0.2-0.4-0.3-0.8-0.3-1.3h1.4
			C196.4,90.7,196.5,90.9,196.6,91.2z"/>
	</g>
	<g clip-path="url(#SVGID_2_)">
		<path d="M290.4,105.1c0.1-0.5,0.4-0.9,0.7-1.3c0.3-0.4,0.7-0.6,1.2-0.8c0.5-0.2,1-0.3,1.6-0.3c0.5,0,1,0.1,1.4,0.2
			c0.4,0.1,0.8,0.4,1.1,0.6c0.3,0.3,0.6,0.6,0.8,1c0.2,0.4,0.3,0.9,0.3,1.4c0,0.5-0.1,0.9-0.2,1.3s-0.4,0.7-0.6,1
			c-0.3,0.3-0.5,0.6-0.9,0.8c-0.3,0.2-0.7,0.5-1,0.7c-0.4,0.2-0.7,0.4-1.1,0.6c-0.4,0.2-0.7,0.4-1,0.7c-0.3,0.2-0.5,0.5-0.8,0.8
			c-0.2,0.3-0.3,0.6-0.4,0.9h5.8v1.2h-7.4c0.1-0.7,0.2-1.2,0.4-1.7s0.4-0.9,0.7-1.2s0.6-0.7,1-0.9c0.4-0.3,0.7-0.5,1.1-0.8
			c0.5-0.3,0.9-0.6,1.3-0.8s0.7-0.5,0.9-0.8c0.2-0.3,0.4-0.5,0.5-0.8c0.1-0.3,0.2-0.6,0.2-1c0-0.3-0.1-0.6-0.2-0.8
			c-0.1-0.3-0.3-0.5-0.5-0.6s-0.4-0.3-0.7-0.4c-0.3-0.1-0.5-0.1-0.8-0.1c-0.4,0-0.7,0.1-1,0.2c-0.3,0.2-0.5,0.4-0.7,0.6
			s-0.3,0.6-0.4,0.9s-0.1,0.7-0.1,1h-1.4C290.2,106.1,290.3,105.6,290.4,105.1z"/>
		<path d="M303.7,108.2c0.2-0.5,0.4-1,0.8-1.4c0.3-0.4,0.8-0.7,1.3-0.9c0.5-0.2,1.1-0.3,1.7-0.3c0.7,0,1.2,0.1,1.7,0.3
			s0.9,0.5,1.3,0.9s0.6,0.8,0.8,1.4c0.2,0.5,0.3,1.1,0.3,1.7s-0.1,1.2-0.3,1.7c-0.2,0.5-0.4,1-0.8,1.4c-0.3,0.4-0.8,0.7-1.3,0.9
			c-0.5,0.2-1.1,0.3-1.7,0.3c-0.7,0-1.2-0.1-1.7-0.3c-0.5-0.2-0.9-0.5-1.3-0.9c-0.3-0.4-0.6-0.8-0.8-1.4s-0.3-1.1-0.3-1.7
			S303.5,108.7,303.7,108.2z M305.1,111.2c0.1,0.4,0.3,0.7,0.6,1c0.2,0.3,0.5,0.5,0.8,0.6c0.3,0.1,0.6,0.2,1,0.2
			c0.4,0,0.7-0.1,1-0.2c0.3-0.1,0.6-0.3,0.8-0.6c0.2-0.3,0.4-0.6,0.6-1s0.2-0.8,0.2-1.3s-0.1-0.9-0.2-1.3s-0.3-0.7-0.6-1
			c-0.2-0.3-0.5-0.5-0.8-0.6c-0.3-0.1-0.6-0.2-1-0.2c-0.4,0-0.7,0.1-1,0.2c-0.3,0.1-0.6,0.3-0.8,0.6c-0.2,0.3-0.4,0.6-0.6,1
			s-0.2,0.8-0.2,1.3S305,110.8,305.1,111.2z"/>
		<path d="M314.4,102.6v4.4h0c0.1-0.3,0.3-0.5,0.4-0.6c0.2-0.2,0.4-0.3,0.6-0.4c0.2-0.1,0.5-0.2,0.8-0.2c0.3-0.1,0.5-0.1,0.8-0.1
			c0.5,0,1,0.1,1.4,0.2c0.4,0.1,0.7,0.4,0.9,0.6c0.2,0.3,0.4,0.6,0.5,1c0.1,0.4,0.1,0.8,0.1,1.2v5.4h-1.4v-5.6
			c0-0.5-0.2-0.9-0.4-1.2c-0.3-0.3-0.7-0.4-1.2-0.4c-0.4,0-0.8,0.1-1.1,0.2s-0.6,0.3-0.8,0.5c-0.2,0.2-0.4,0.5-0.5,0.8
			s-0.2,0.7-0.2,1v4.7h-1.4v-11.4H314.4z"/>
		<path d="M323.3,105.7v1.2h0c0.6-0.9,1.5-1.4,2.7-1.4c0.5,0,1,0.1,1.4,0.3c0.4,0.2,0.7,0.6,0.9,1.1c0.3-0.4,0.6-0.8,1.1-1
			c0.5-0.2,1-0.4,1.5-0.4c0.4,0,0.8,0,1.1,0.1s0.6,0.2,0.9,0.4c0.2,0.2,0.4,0.4,0.6,0.7c0.1,0.3,0.2,0.7,0.2,1.1v6.1h-1.4v-5.4
			c0-0.3,0-0.5-0.1-0.7c0-0.2-0.1-0.4-0.2-0.6c-0.1-0.2-0.3-0.3-0.5-0.4s-0.5-0.1-0.8-0.1c-0.7,0-1.2,0.2-1.6,0.6
			c-0.4,0.4-0.6,0.9-0.6,1.5v5.2h-1.4v-5.4c0-0.3,0-0.5-0.1-0.7c0-0.2-0.1-0.4-0.2-0.6c-0.1-0.2-0.3-0.3-0.5-0.4
			c-0.2-0.1-0.5-0.1-0.8-0.1c-0.4,0-0.7,0.1-1,0.2c-0.3,0.2-0.5,0.4-0.7,0.6c-0.2,0.2-0.3,0.5-0.4,0.7s-0.1,0.4-0.1,0.6v5.2H322
			v-8.3H323.3z"/>
		<path d="M336.7,112.2c0.1,0.2,0.3,0.4,0.5,0.5c0.2,0.1,0.4,0.2,0.7,0.3c0.3,0.1,0.5,0.1,0.8,0.1c0.2,0,0.4,0,0.7,0
			c0.2,0,0.5-0.1,0.6-0.2c0.2-0.1,0.4-0.2,0.5-0.4c0.1-0.2,0.2-0.4,0.2-0.6c0-0.4-0.1-0.6-0.4-0.8s-0.6-0.3-1-0.4
			c-0.4-0.1-0.8-0.2-1.3-0.3c-0.5-0.1-0.9-0.2-1.3-0.4s-0.7-0.4-1-0.7c-0.3-0.3-0.4-0.7-0.4-1.2c0-0.4,0.1-0.8,0.3-1.1
			s0.4-0.5,0.7-0.7s0.6-0.3,1-0.4s0.7-0.1,1.1-0.1c0.5,0,0.9,0,1.3,0.1c0.4,0.1,0.7,0.2,1,0.4c0.3,0.2,0.5,0.5,0.7,0.8
			s0.3,0.8,0.3,1.3h-1.4c0-0.3-0.1-0.5-0.2-0.7s-0.3-0.3-0.4-0.4c-0.2-0.1-0.4-0.2-0.6-0.2c-0.2,0-0.4-0.1-0.7-0.1
			c-0.2,0-0.4,0-0.6,0s-0.4,0.1-0.6,0.2c-0.2,0.1-0.3,0.2-0.4,0.3c-0.1,0.1-0.2,0.3-0.2,0.5c0,0.2,0.1,0.4,0.2,0.6
			c0.2,0.2,0.4,0.3,0.6,0.4c0.3,0.1,0.5,0.2,0.9,0.3c0.3,0.1,0.6,0.1,1,0.2c0.3,0.1,0.7,0.2,1,0.3c0.3,0.1,0.6,0.2,0.9,0.4
			c0.3,0.2,0.5,0.4,0.6,0.7c0.2,0.3,0.2,0.6,0.2,1c0,0.5-0.1,0.9-0.3,1.2c-0.2,0.3-0.5,0.6-0.8,0.8c-0.3,0.2-0.7,0.3-1.1,0.4
			s-0.8,0.1-1.3,0.1c-0.5,0-0.9,0-1.3-0.1c-0.4-0.1-0.8-0.3-1.1-0.5c-0.3-0.2-0.6-0.5-0.8-0.9c-0.2-0.4-0.3-0.8-0.3-1.3h1.4
			C336.5,111.7,336.5,111.9,336.7,112.2z"/>
	</g>
	<g clip-path="url(#SVGID_2_)">
		<path d="M6.3,96.1c0.1-0.5,0.4-0.9,0.7-1.3c0.3-0.4,0.7-0.6,1.2-0.8c0.5-0.2,1-0.3,1.6-0.3c0.5,0,1,0.1,1.4,0.2
			c0.4,0.1,0.8,0.4,1.1,0.6c0.3,0.3,0.6,0.6,0.8,1c0.2,0.4,0.3,0.9,0.3,1.4c0,0.5-0.1,0.9-0.2,1.3s-0.4,0.7-0.6,1
			c-0.3,0.3-0.5,0.6-0.9,0.8c-0.3,0.2-0.7,0.5-1,0.7c-0.4,0.2-0.7,0.4-1.1,0.6s-0.7,0.4-1,0.7c-0.3,0.2-0.5,0.5-0.8,0.8
			c-0.2,0.3-0.3,0.6-0.4,0.9h5.8v1.2H5.8c0.1-0.7,0.2-1.2,0.4-1.7c0.2-0.5,0.4-0.9,0.7-1.2s0.6-0.7,1-0.9c0.4-0.3,0.7-0.5,1.1-0.8
			c0.5-0.3,0.9-0.6,1.3-0.8c0.4-0.3,0.7-0.5,0.9-0.8c0.2-0.3,0.4-0.5,0.5-0.8s0.2-0.6,0.2-1c0-0.3-0.1-0.6-0.2-0.8
			c-0.1-0.3-0.3-0.5-0.5-0.6s-0.4-0.3-0.7-0.4c-0.3-0.1-0.5-0.1-0.8-0.1c-0.4,0-0.7,0.1-1,0.2c-0.3,0.2-0.5,0.4-0.7,0.6
			c-0.2,0.3-0.3,0.6-0.4,0.9s-0.1,0.7-0.1,1H6.2C6.1,97.1,6.2,96.6,6.3,96.1z"/>
		<path d="M19.6,99.2c0.2-0.5,0.4-1,0.8-1.4c0.3-0.4,0.8-0.7,1.3-0.9s1.1-0.3,1.7-0.3c0.7,0,1.2,0.1,1.7,0.3s0.9,0.5,1.3,0.9
			s0.6,0.8,0.8,1.4c0.2,0.5,0.3,1.1,0.3,1.7s-0.1,1.2-0.3,1.7c-0.2,0.5-0.4,1-0.8,1.4c-0.3,0.4-0.8,0.7-1.3,0.9
			c-0.5,0.2-1.1,0.3-1.7,0.3c-0.7,0-1.2-0.1-1.7-0.3c-0.5-0.2-0.9-0.5-1.3-0.9c-0.3-0.4-0.6-0.8-0.8-1.4c-0.2-0.5-0.3-1.1-0.3-1.7
			S19.5,99.7,19.6,99.2z M21,102.2c0.1,0.4,0.3,0.7,0.6,1c0.2,0.3,0.5,0.5,0.8,0.6c0.3,0.1,0.6,0.2,1,0.2c0.4,0,0.7-0.1,1-0.2
			c0.3-0.1,0.6-0.3,0.8-0.6c0.2-0.3,0.4-0.6,0.6-1s0.2-0.8,0.2-1.3s-0.1-0.9-0.2-1.3s-0.3-0.7-0.6-1c-0.2-0.3-0.5-0.5-0.8-0.6
			c-0.3-0.1-0.6-0.2-1-0.2c-0.4,0-0.7,0.1-1,0.2c-0.3,0.1-0.6,0.3-0.8,0.6c-0.2,0.3-0.4,0.6-0.6,1s-0.2,0.8-0.2,1.3
			S20.9,101.8,21,102.2z"/>
		<path d="M30.4,93.6v4.4h0c0.1-0.3,0.3-0.5,0.4-0.6c0.2-0.2,0.4-0.3,0.6-0.4c0.2-0.1,0.5-0.2,0.8-0.2c0.3-0.1,0.5-0.1,0.8-0.1
			c0.5,0,1,0.1,1.4,0.2c0.4,0.1,0.7,0.4,0.9,0.6c0.2,0.3,0.4,0.6,0.5,1s0.1,0.8,0.1,1.2v5.4h-1.4v-5.6c0-0.5-0.1-0.9-0.4-1.2
			c-0.3-0.3-0.7-0.4-1.2-0.4c-0.4,0-0.8,0.1-1.1,0.2c-0.3,0.1-0.6,0.3-0.8,0.5c-0.2,0.2-0.4,0.5-0.5,0.8c-0.1,0.3-0.2,0.7-0.2,1v4.7
			H29V93.6H30.4z"/>
		<path d="M39.2,96.7v1.2h0c0.6-0.9,1.5-1.4,2.7-1.4c0.5,0,1,0.1,1.4,0.3c0.4,0.2,0.7,0.6,0.9,1.1c0.3-0.4,0.6-0.8,1.1-1
			c0.5-0.2,1-0.4,1.5-0.4c0.4,0,0.8,0,1.1,0.1s0.6,0.2,0.9,0.4c0.2,0.2,0.4,0.4,0.6,0.7s0.2,0.7,0.2,1.1v6.1h-1.4v-5.4
			c0-0.3,0-0.5-0.1-0.7c0-0.2-0.1-0.4-0.2-0.6c-0.1-0.2-0.3-0.3-0.5-0.4s-0.5-0.1-0.8-0.1c-0.7,0-1.2,0.2-1.6,0.6
			c-0.4,0.4-0.6,0.9-0.6,1.5v5.2H43v-5.4c0-0.3,0-0.5-0.1-0.7c0-0.2-0.1-0.4-0.2-0.6c-0.1-0.2-0.3-0.3-0.5-0.4
			c-0.2-0.1-0.5-0.1-0.8-0.1c-0.4,0-0.7,0.1-1,0.2c-0.3,0.2-0.5,0.4-0.7,0.6c-0.2,0.2-0.3,0.5-0.4,0.7s-0.1,0.4-0.1,0.6v5.2h-1.4
			v-8.3H39.2z"/>
		<path d="M52.6,103.2c0.1,0.2,0.3,0.4,0.5,0.5c0.2,0.1,0.4,0.2,0.7,0.3s0.5,0.1,0.8,0.1c0.2,0,0.4,0,0.7,0c0.2,0,0.5-0.1,0.6-0.2
			c0.2-0.1,0.4-0.2,0.5-0.4c0.1-0.2,0.2-0.4,0.2-0.6c0-0.4-0.1-0.6-0.4-0.8c-0.3-0.2-0.6-0.3-1-0.4c-0.4-0.1-0.8-0.2-1.3-0.3
			c-0.5-0.1-0.9-0.2-1.3-0.4c-0.4-0.2-0.7-0.4-1-0.7c-0.3-0.3-0.4-0.7-0.4-1.2c0-0.4,0.1-0.8,0.3-1.1c0.2-0.3,0.4-0.5,0.7-0.7
			s0.6-0.3,1-0.4s0.7-0.1,1.1-0.1c0.5,0,0.9,0,1.3,0.1c0.4,0.1,0.7,0.2,1,0.4s0.5,0.5,0.7,0.8c0.2,0.3,0.3,0.8,0.3,1.3h-1.4
			c0-0.3-0.1-0.5-0.2-0.7c-0.1-0.2-0.3-0.3-0.4-0.4c-0.2-0.1-0.4-0.2-0.6-0.2c-0.2,0-0.4-0.1-0.7-0.1c-0.2,0-0.4,0-0.6,0
			s-0.4,0.1-0.6,0.2c-0.2,0.1-0.3,0.2-0.4,0.3c-0.1,0.1-0.2,0.3-0.2,0.5c0,0.2,0.1,0.4,0.2,0.6s0.4,0.3,0.6,0.4
			c0.3,0.1,0.5,0.2,0.9,0.3c0.3,0.1,0.6,0.1,1,0.2c0.3,0.1,0.7,0.2,1,0.3s0.6,0.2,0.9,0.4c0.3,0.2,0.5,0.4,0.6,0.7
			c0.2,0.3,0.2,0.6,0.2,1c0,0.5-0.1,0.9-0.3,1.2c-0.2,0.3-0.5,0.6-0.8,0.8c-0.3,0.2-0.7,0.3-1.1,0.4s-0.8,0.1-1.3,0.1
			c-0.5,0-0.9,0-1.3-0.1c-0.4-0.1-0.8-0.3-1.1-0.5c-0.3-0.2-0.6-0.5-0.8-0.9s-0.3-0.8-0.3-1.3h1.4C52.4,102.7,52.5,102.9,52.6,103.2
			z"/>
	</g>
	<g clip-path="url(#SVGID_2_)">
		<path d="M150.8,222v-8.1h-2.9v-1.1c0.4,0,0.8,0,1.1-0.1c0.4-0.1,0.7-0.2,1-0.3c0.3-0.2,0.5-0.4,0.7-0.7c0.2-0.3,0.3-0.6,0.4-1.1h1
			V222H150.8z"/>
		<path d="M161.4,212.3c-0.3-0.3-0.8-0.5-1.3-0.5c-0.6,0-1,0.1-1.4,0.4c-0.4,0.3-0.6,0.6-0.8,1.1c-0.2,0.4-0.3,0.9-0.4,1.4
			c-0.1,0.5-0.1,1-0.1,1.4l0,0c0.3-0.5,0.7-0.9,1.2-1.1c0.5-0.2,1-0.4,1.6-0.4c0.5,0,1,0.1,1.5,0.3s0.8,0.4,1.1,0.8
			c0.3,0.3,0.5,0.7,0.7,1.2c0.2,0.4,0.2,0.9,0.2,1.5c0,0.4-0.1,0.8-0.2,1.3c-0.1,0.4-0.3,0.9-0.6,1.2s-0.7,0.7-1.2,0.9
			c-0.5,0.2-1.1,0.4-1.8,0.4c-0.8,0-1.5-0.2-2-0.5c-0.5-0.3-0.9-0.8-1.2-1.3c-0.3-0.5-0.5-1.1-0.6-1.8c-0.1-0.6-0.1-1.3-0.1-1.9
			c0-0.8,0.1-1.5,0.2-2.3c0.1-0.7,0.4-1.4,0.7-1.9c0.3-0.6,0.7-1,1.3-1.4c0.5-0.3,1.2-0.5,2-0.5c0.9,0,1.7,0.2,2.2,0.7
			s0.9,1.2,1,2.2H162C161.9,213,161.8,212.6,161.4,212.3z M159,216.1c-0.3,0.1-0.5,0.3-0.7,0.5s-0.4,0.5-0.5,0.8
			c-0.1,0.3-0.2,0.6-0.2,1c0,0.4,0.1,0.7,0.2,1c0.1,0.3,0.3,0.6,0.5,0.8c0.2,0.2,0.4,0.4,0.7,0.5c0.3,0.1,0.6,0.2,1,0.2
			c0.4,0,0.7-0.1,1-0.2c0.3-0.1,0.5-0.3,0.7-0.6s0.3-0.5,0.4-0.8c0.1-0.3,0.2-0.6,0.2-1c0-0.4,0-0.7-0.1-1c-0.1-0.3-0.2-0.6-0.4-0.8
			c-0.2-0.2-0.4-0.4-0.7-0.6s-0.6-0.2-1-0.2C159.6,215.9,159.2,216,159,216.1z"/>
		<path d="M172,222l-3.1-8.3h1.5l2.3,6.9h0l2.3-6.9h1.4l-3,8.3H172z"/>
		<path d="M177.6,216.2c0.2-0.5,0.4-1,0.8-1.4c0.3-0.4,0.8-0.7,1.3-0.9s1.1-0.3,1.7-0.3c0.7,0,1.2,0.1,1.7,0.3s0.9,0.5,1.3,0.9
			s0.6,0.8,0.8,1.4c0.2,0.5,0.3,1.1,0.3,1.7s-0.1,1.2-0.3,1.7c-0.2,0.5-0.4,1-0.8,1.4c-0.3,0.4-0.8,0.7-1.3,0.9
			c-0.5,0.2-1.1,0.3-1.7,0.3c-0.7,0-1.2-0.1-1.7-0.3c-0.5-0.2-0.9-0.5-1.3-0.9c-0.3-0.4-0.6-0.8-0.8-1.4c-0.2-0.5-0.3-1.1-0.3-1.7
			S177.4,216.7,177.6,216.2z M178.9,219.2c0.1,0.4,0.3,0.7,0.6,1c0.2,0.3,0.5,0.5,0.8,0.6c0.3,0.1,0.6,0.2,1,0.2
			c0.4,0,0.7-0.1,1-0.2c0.3-0.1,0.6-0.3,0.8-0.6c0.2-0.3,0.4-0.6,0.6-1s0.2-0.8,0.2-1.3s-0.1-0.9-0.2-1.3s-0.3-0.7-0.6-1
			c-0.2-0.3-0.5-0.5-0.8-0.6c-0.3-0.1-0.6-0.2-1-0.2c-0.4,0-0.7,0.1-1,0.2c-0.3,0.1-0.6,0.3-0.8,0.6c-0.2,0.3-0.4,0.6-0.6,1
			s-0.2,0.8-0.2,1.3S178.8,218.8,178.9,219.2z"/>
		<path d="M188.4,210.6V222H187v-11.4H188.4z"/>
		<path d="M194,213.7v1.2h-1.6v5.1c0,0.2,0,0.3,0,0.4c0,0.1,0.1,0.2,0.2,0.2c0.1,0.1,0.2,0.1,0.3,0.1c0.1,0,0.3,0,0.5,0h0.6v1.2h-1
			c-0.4,0-0.7,0-0.9-0.1c-0.3,0-0.5-0.1-0.6-0.3s-0.3-0.3-0.3-0.5c-0.1-0.2-0.1-0.5-0.1-0.9v-5.3h-1.4v-1.2h1.4v-2.5h1.4v2.5H194z"
			/>
		<path d="M196.6,220.2c0.1,0.2,0.3,0.4,0.5,0.5c0.2,0.1,0.4,0.2,0.7,0.3c0.3,0.1,0.5,0.1,0.8,0.1c0.2,0,0.4,0,0.7,0
			c0.2,0,0.5-0.1,0.6-0.2c0.2-0.1,0.4-0.2,0.5-0.4c0.1-0.2,0.2-0.4,0.2-0.6c0-0.4-0.1-0.6-0.4-0.8s-0.6-0.3-1-0.4
			c-0.4-0.1-0.8-0.2-1.3-0.3c-0.5-0.1-0.9-0.2-1.3-0.4s-0.7-0.4-1-0.7c-0.3-0.3-0.4-0.7-0.4-1.2c0-0.4,0.1-0.8,0.3-1.1
			s0.4-0.5,0.7-0.7s0.6-0.3,1-0.4s0.7-0.1,1.1-0.1c0.5,0,0.9,0,1.3,0.1c0.4,0.1,0.7,0.2,1,0.4c0.3,0.2,0.5,0.5,0.7,0.8
			s0.3,0.8,0.3,1.3h-1.4c0-0.3-0.1-0.5-0.2-0.7s-0.3-0.3-0.4-0.4c-0.2-0.1-0.4-0.2-0.6-0.2c-0.2,0-0.4-0.1-0.7-0.1
			c-0.2,0-0.4,0-0.6,0s-0.4,0.1-0.6,0.2c-0.2,0.1-0.3,0.2-0.4,0.3c-0.1,0.1-0.2,0.3-0.2,0.5c0,0.2,0.1,0.4,0.2,0.6
			c0.2,0.2,0.4,0.3,0.6,0.4c0.3,0.1,0.5,0.2,0.9,0.3c0.3,0.1,0.6,0.1,1,0.2c0.3,0.1,0.7,0.2,1,0.3c0.3,0.1,0.6,0.2,0.9,0.4
			c0.3,0.2,0.5,0.4,0.6,0.7c0.2,0.3,0.2,0.6,0.2,1c0,0.5-0.1,0.9-0.3,1.2c-0.2,0.3-0.5,0.6-0.8,0.8c-0.3,0.2-0.7,0.3-1.1,0.4
			s-0.8,0.1-1.3,0.1c-0.5,0-0.9,0-1.3-0.1c-0.4-0.1-0.8-0.3-1.1-0.5c-0.3-0.2-0.6-0.5-0.8-0.9c-0.2-0.4-0.3-0.8-0.3-1.3h1.4
			C196.4,219.7,196.4,219.9,196.6,220.2z"/>
	</g>
	<g clip-path="url(#SVGID_2_)">
		<path d="M6.3,213.1c0.1-0.5,0.4-0.9,0.7-1.3c0.3-0.4,0.7-0.6,1.2-0.8c0.5-0.2,1-0.3,1.6-0.3c0.5,0,1,0.1,1.4,0.2
			c0.4,0.1,0.8,0.4,1.1,0.6c0.3,0.3,0.6,0.6,0.8,1c0.2,0.4,0.3,0.9,0.3,1.4c0,0.5-0.1,0.9-0.2,1.3s-0.4,0.7-0.6,1
			c-0.3,0.3-0.5,0.6-0.9,0.8c-0.3,0.2-0.7,0.5-1,0.7c-0.4,0.2-0.7,0.4-1.1,0.6s-0.7,0.4-1,0.7c-0.3,0.2-0.5,0.5-0.8,0.8
			c-0.2,0.3-0.3,0.6-0.4,0.9h5.8v1.2H5.8c0.1-0.7,0.2-1.2,0.4-1.7c0.2-0.5,0.4-0.9,0.7-1.2s0.6-0.7,1-0.9c0.4-0.3,0.7-0.5,1.1-0.8
			c0.5-0.3,0.9-0.6,1.3-0.8c0.4-0.3,0.7-0.5,0.9-0.8c0.2-0.3,0.4-0.5,0.5-0.8s0.2-0.6,0.2-1c0-0.3-0.1-0.6-0.2-0.8
			c-0.1-0.3-0.3-0.5-0.5-0.6s-0.4-0.3-0.7-0.4c-0.3-0.1-0.5-0.1-0.8-0.1c-0.4,0-0.7,0.1-1,0.2c-0.3,0.2-0.5,0.4-0.7,0.6
			c-0.2,0.3-0.3,0.6-0.4,0.9s-0.1,0.7-0.1,1H6.2C6.1,214.1,6.2,213.6,6.3,213.1z"/>
		<path d="M19.6,216.2c0.2-0.5,0.4-1,0.8-1.4c0.3-0.4,0.8-0.7,1.3-0.9s1.1-0.3,1.7-0.3c0.7,0,1.2,0.1,1.7,0.3s0.9,0.5,1.3,0.9
			s0.6,0.8,0.8,1.4c0.2,0.5,0.3,1.1,0.3,1.7s-0.1,1.2-0.3,1.7c-0.2,0.5-0.4,1-0.8,1.4c-0.3,0.4-0.8,0.7-1.3,0.9
			c-0.5,0.2-1.1,0.3-1.7,0.3c-0.7,0-1.2-0.1-1.7-0.3c-0.5-0.2-0.9-0.5-1.3-0.9c-0.3-0.4-0.6-0.8-0.8-1.4c-0.2-0.5-0.3-1.1-0.3-1.7
			S19.5,216.7,19.6,216.2z M21,219.2c0.1,0.4,0.3,0.7,0.6,1c0.2,0.3,0.5,0.5,0.8,0.6c0.3,0.1,0.6,0.2,1,0.2c0.4,0,0.7-0.1,1-0.2
			c0.3-0.1,0.6-0.3,0.8-0.6c0.2-0.3,0.4-0.6,0.6-1s0.2-0.8,0.2-1.3s-0.1-0.9-0.2-1.3s-0.3-0.7-0.6-1c-0.2-0.3-0.5-0.5-0.8-0.6
			c-0.3-0.1-0.6-0.2-1-0.2c-0.4,0-0.7,0.1-1,0.2c-0.3,0.1-0.6,0.3-0.8,0.6c-0.2,0.3-0.4,0.6-0.6,1s-0.2,0.8-0.2,1.3
			S20.9,218.8,21,219.2z"/>
		<path d="M30.4,210.6v4.4h0c0.1-0.3,0.3-0.5,0.4-0.6c0.2-0.2,0.4-0.3,0.6-0.4c0.2-0.1,0.5-0.2,0.8-0.2c0.3-0.1,0.5-0.1,0.8-0.1
			c0.5,0,1,0.1,1.4,0.2c0.4,0.1,0.7,0.4,0.9,0.6c0.2,0.3,0.4,0.6,0.5,1s0.1,0.8,0.1,1.2v5.4h-1.4v-5.6c0-0.5-0.1-0.9-0.4-1.2
			c-0.3-0.3-0.7-0.4-1.2-0.4c-0.4,0-0.8,0.1-1.1,0.2c-0.3,0.1-0.6,0.3-0.8,0.5c-0.2,0.2-0.4,0.5-0.5,0.8c-0.1,0.3-0.2,0.7-0.2,1v4.7
			H29v-11.4H30.4z"/>
		<path d="M39.2,213.7v1.2h0c0.6-0.9,1.5-1.4,2.7-1.4c0.5,0,1,0.1,1.4,0.3c0.4,0.2,0.7,0.6,0.9,1.1c0.3-0.4,0.6-0.8,1.1-1
			c0.5-0.2,1-0.4,1.5-0.4c0.4,0,0.8,0,1.1,0.1s0.6,0.2,0.9,0.4c0.2,0.2,0.4,0.4,0.6,0.7s0.2,0.7,0.2,1.1v6.1h-1.4v-5.4
			c0-0.3,0-0.5-0.1-0.7c0-0.2-0.1-0.4-0.2-0.6c-0.1-0.2-0.3-0.3-0.5-0.4s-0.5-0.1-0.8-0.1c-0.7,0-1.2,0.2-1.6,0.6
			c-0.4,0.4-0.6,0.9-0.6,1.5v5.2H43v-5.4c0-0.3,0-0.5-0.1-0.7c0-0.2-0.1-0.4-0.2-0.6c-0.1-0.2-0.3-0.3-0.5-0.4
			c-0.2-0.1-0.5-0.1-0.8-0.1c-0.4,0-0.7,0.1-1,0.2c-0.3,0.2-0.5,0.4-0.7,0.6c-0.2,0.2-0.3,0.5-0.4,0.7s-0.1,0.4-0.1,0.6v5.2h-1.4
			v-8.3H39.2z"/>
		<path d="M52.6,220.2c0.1,0.2,0.3,0.4,0.5,0.5c0.2,0.1,0.4,0.2,0.7,0.3s0.5,0.1,0.8,0.1c0.2,0,0.4,0,0.7,0c0.2,0,0.5-0.1,0.6-0.2
			c0.2-0.1,0.4-0.2,0.5-0.4c0.1-0.2,0.2-0.4,0.2-0.6c0-0.4-0.1-0.6-0.4-0.8c-0.3-0.2-0.6-0.3-1-0.4c-0.4-0.1-0.8-0.2-1.3-0.3
			c-0.5-0.1-0.9-0.2-1.3-0.4c-0.4-0.2-0.7-0.4-1-0.7c-0.3-0.3-0.4-0.7-0.4-1.2c0-0.4,0.1-0.8,0.3-1.1c0.2-0.3,0.4-0.5,0.7-0.7
			s0.6-0.3,1-0.4s0.7-0.1,1.1-0.1c0.5,0,0.9,0,1.3,0.1c0.4,0.1,0.7,0.2,1,0.4s0.5,0.5,0.7,0.8c0.2,0.3,0.3,0.8,0.3,1.3h-1.4
			c0-0.3-0.1-0.5-0.2-0.7c-0.1-0.2-0.3-0.3-0.4-0.4c-0.2-0.1-0.4-0.2-0.6-0.2c-0.2,0-0.4-0.1-0.7-0.1c-0.2,0-0.4,0-0.6,0
			s-0.4,0.1-0.6,0.2c-0.2,0.1-0.3,0.2-0.4,0.3c-0.1,0.1-0.2,0.3-0.2,0.5c0,0.2,0.1,0.4,0.2,0.6s0.4,0.3,0.6,0.4
			c0.3,0.1,0.5,0.2,0.9,0.3c0.3,0.1,0.6,0.1,1,0.2c0.3,0.1,0.7,0.2,1,0.3s0.6,0.2,0.9,0.4c0.3,0.2,0.5,0.4,0.6,0.7
			c0.2,0.3,0.2,0.6,0.2,1c0,0.5-0.1,0.9-0.3,1.2c-0.2,0.3-0.5,0.6-0.8,0.8c-0.3,0.2-0.7,0.3-1.1,0.4s-0.8,0.1-1.3,0.1
			c-0.5,0-0.9,0-1.3-0.1c-0.4-0.1-0.8-0.3-1.1-0.5c-0.3-0.2-0.6-0.5-0.8-0.9s-0.3-0.8-0.3-1.3h1.4C52.4,219.7,52.5,219.9,52.6,220.2
			z"/>
	</g>
	<g clip-path="url(#SVGID_2_)">
		<path d="M143.8,174v-8.1h-2.9v-1.1c0.4,0,0.8,0,1.1-0.1c0.4-0.1,0.7-0.2,1-0.3c0.3-0.2,0.5-0.4,0.7-0.7c0.2-0.3,0.3-0.6,0.4-1.1h1
			V174H143.8z"/>
		<path d="M153.6,168.2c0.2-0.5,0.4-1,0.8-1.4c0.3-0.4,0.8-0.7,1.3-0.9s1.1-0.3,1.7-0.3c0.7,0,1.2,0.1,1.7,0.3s0.9,0.5,1.3,0.9
			s0.6,0.8,0.8,1.4c0.2,0.5,0.3,1.1,0.3,1.7s-0.1,1.2-0.3,1.7c-0.2,0.5-0.4,1-0.8,1.4c-0.3,0.4-0.8,0.7-1.3,0.9
			c-0.5,0.2-1.1,0.3-1.7,0.3c-0.7,0-1.2-0.1-1.7-0.3c-0.5-0.2-0.9-0.5-1.3-0.9c-0.3-0.4-0.6-0.8-0.8-1.4c-0.2-0.5-0.3-1.1-0.3-1.7
			S153.5,168.7,153.6,168.2z M155,171.2c0.1,0.4,0.3,0.7,0.6,1c0.2,0.3,0.5,0.5,0.8,0.6c0.3,0.1,0.6,0.2,1,0.2c0.4,0,0.7-0.1,1-0.2
			c0.3-0.1,0.6-0.3,0.8-0.6c0.2-0.3,0.4-0.6,0.6-1s0.2-0.8,0.2-1.3s-0.1-0.9-0.2-1.3s-0.3-0.7-0.6-1c-0.2-0.3-0.5-0.5-0.8-0.6
			c-0.3-0.1-0.6-0.2-1-0.2c-0.4,0-0.7,0.1-1,0.2c-0.3,0.1-0.6,0.3-0.8,0.6c-0.2,0.3-0.4,0.6-0.6,1s-0.2,0.8-0.2,1.3
			S154.9,170.8,155,171.2z"/>
		<path d="M164.4,162.6v4.4h0c0.1-0.3,0.3-0.5,0.4-0.6c0.2-0.2,0.4-0.3,0.6-0.4c0.2-0.1,0.5-0.2,0.8-0.2c0.3-0.1,0.5-0.1,0.8-0.1
			c0.5,0,1,0.1,1.4,0.2c0.4,0.1,0.7,0.4,0.9,0.6c0.2,0.3,0.4,0.6,0.5,1s0.1,0.8,0.1,1.2v5.4h-1.4v-5.6c0-0.5-0.1-0.9-0.4-1.2
			c-0.3-0.3-0.7-0.4-1.2-0.4c-0.4,0-0.8,0.1-1.1,0.2c-0.3,0.1-0.6,0.3-0.8,0.5c-0.2,0.2-0.4,0.5-0.5,0.8c-0.1,0.3-0.2,0.7-0.2,1v4.7
			H163v-11.4H164.4z"/>
		<path d="M173.2,165.7v1.2h0c0.6-0.9,1.5-1.4,2.7-1.4c0.5,0,1,0.1,1.4,0.3c0.4,0.2,0.7,0.6,0.9,1.1c0.3-0.4,0.6-0.8,1.1-1
			c0.5-0.2,1-0.4,1.5-0.4c0.4,0,0.8,0,1.1,0.1s0.6,0.2,0.9,0.4c0.2,0.2,0.4,0.4,0.6,0.7s0.2,0.7,0.2,1.1v6.1h-1.4v-5.4
			c0-0.3,0-0.5-0.1-0.7c0-0.2-0.1-0.4-0.2-0.6c-0.1-0.2-0.3-0.3-0.5-0.4s-0.5-0.1-0.8-0.1c-0.7,0-1.2,0.2-1.6,0.6
			c-0.4,0.4-0.6,0.9-0.6,1.5v5.2H177v-5.4c0-0.3,0-0.5-0.1-0.7c0-0.2-0.1-0.4-0.2-0.6c-0.1-0.2-0.3-0.3-0.5-0.4
			c-0.2-0.1-0.5-0.1-0.8-0.1c-0.4,0-0.7,0.1-1,0.2c-0.3,0.2-0.5,0.4-0.7,0.6c-0.2,0.2-0.3,0.5-0.4,0.7s-0.1,0.4-0.1,0.6v5.2h-1.4
			v-8.3H173.2z"/>
	</g>
	<path clip-path="url(#SVGID_2_)" fill="#333333" d="M134,30.2v1.7c0,0.1,0,0.2-0.1,0.2c-0.1,0.1-0.1,0.1-0.2,0.1h-11.1v2
		c0,0.1-0.1,0.2-0.2,0.3c-0.1,0-0.2,0-0.3,0l-3.4-3.1c-0.1-0.1-0.1-0.1-0.1-0.2c0-0.1,0-0.2,0.1-0.2l3.4-3.2
		c0.1-0.1,0.2-0.1,0.3-0.1c0.1,0.1,0.2,0.1,0.2,0.3v2h11.1c0.1,0,0.2,0,0.2,0.1C134,30.1,134,30.1,134,30.2z"/>
	<path clip-path="url(#SVGID_2_)" fill="#333333" d="M242,31.9v1.7c0,0.1,0,0.2-0.1,0.2c-0.1,0.1-0.1,0.1-0.2,0.1h-11.1v2
		c0,0.1-0.1,0.2-0.2,0.3c-0.1,0-0.2,0-0.3,0l-3.4-3.1c-0.1-0.1-0.1-0.1-0.1-0.2c0-0.1,0-0.2,0.1-0.2l3.4-3.2
		c0.1-0.1,0.2-0.1,0.3-0.1c0.1,0.1,0.2,0.1,0.2,0.3v2h11.1c0.1,0,0.2,0,0.2,0.1C242,31.8,242,31.8,242,31.9z"/>
	<path clip-path="url(#SVGID_2_)" fill="#333333" d="M241.3,131.6c0.1,0.1,0.1,0.1,0.1,0.2c0,0.1,0,0.2-0.1,0.2l-3.4,3.2
		c-0.1,0.1-0.2,0.1-0.3,0.1c-0.1-0.1-0.2-0.1-0.2-0.3v-2h-11.1c-0.1,0-0.2,0-0.2-0.1c-0.1-0.1-0.1-0.1-0.1-0.2v-1.7
		c0-0.1,0-0.2,0.1-0.2c0.1-0.1,0.1-0.1,0.2-0.1h11.1v-2c0-0.1,0.1-0.2,0.2-0.3c0.1,0,0.2,0,0.3,0L241.3,131.6L241.3,131.6z"/>
	<path clip-path="url(#SVGID_2_)" fill="#333333" d="M133.3,131.6c0.1,0.1,0.1,0.1,0.1,0.2c0,0.1,0,0.2-0.1,0.2l-3.4,3.2
		c-0.1,0.1-0.2,0.1-0.3,0.1c-0.1-0.1-0.2-0.1-0.2-0.3v-2h-11.1c-0.1,0-0.2,0-0.2-0.1c-0.1-0.1-0.1-0.1-0.1-0.2v-1.7
		c0-0.1,0-0.2,0.1-0.2c0.1-0.1,0.1-0.1,0.2-0.1h11.1v-2c0-0.1,0.1-0.2,0.2-0.3c0.1,0,0.2,0,0.3,0L133.3,131.6L133.3,131.6z"/>
	<path clip-path="url(#SVGID_2_)" fill="#333333" d="M242,221.9v1.7c0,0.1,0,0.2-0.1,0.2c-0.1,0.1-0.1,0.1-0.2,0.1h-11.1v2
		c0,0.1-0.1,0.2-0.2,0.3c-0.1,0-0.2,0-0.3,0l-3.4-3.1c-0.1-0.1-0.1-0.1-0.1-0.2c0-0.1,0-0.2,0.1-0.2l3.4-3.2
		c0.1-0.1,0.2-0.1,0.3-0.1c0.1,0.1,0.2,0.1,0.2,0.3v2h11.1c0.1,0,0.2,0,0.2,0.1C242,221.8,242,221.8,242,221.9z"/>
	<path clip-path="url(#SVGID_2_)" fill="#333333" d="M134,221.9v1.7c0,0.1,0,0.2-0.1,0.2c-0.1,0.1-0.1,0.1-0.2,0.1h-11.1v2
		c0,0.1-0.1,0.2-0.2,0.3c-0.1,0-0.2,0-0.3,0l-3.4-3.1c-0.1-0.1-0.1-0.1-0.1-0.2c0-0.1,0-0.2,0.1-0.2l3.4-3.2
		c0.1-0.1,0.2-0.1,0.3-0.1c0.1,0.1,0.2,0.1,0.2,0.3v2h11.1c0.1,0,0.2,0,0.2,0.1C134,221.8,134,221.8,134,221.9z"/>
	<g clip-path="url(#SVGID_2_)">
		<path d="M122.3,20.1c0.7,0,1.1-0.1,1.3-0.3c0.2-0.1,0.3-0.5,0.3-1.1v-7.1c0-0.6-0.1-1-0.3-1.1c-0.2-0.2-0.6-0.3-1.3-0.3V9.8h4.7
			v0.3c-0.7,0-1.1,0.1-1.3,0.3c-0.2,0.2-0.3,0.5-0.3,1.1v7.1c0,0.6,0.1,1,0.3,1.1c0.2,0.1,0.6,0.2,1.3,0.3v0.3h-4.7V20.1z"/>
		<path d="M130.1,19.5C130.1,19.5,130.1,19.5,130.1,19.5l0,5.5c0,0.2,0.1,0.4,0.2,0.4s0.4,0.1,0.7,0.1v0.1h-2.6v-0.1
			c0.4,0,0.6-0.1,0.7-0.2s0.2-0.3,0.2-0.5v-4.2c0-0.1,0-0.3-0.1-0.3s-0.1-0.1-0.2-0.1c-0.1,0-0.2,0-0.3,0.1s-0.2,0.1-0.4,0.1v-0.1
			L130.1,19.5L130.1,19.5C130.1,19.5,130.1,19.5,130.1,19.5z"/>
	</g>
	<g clip-path="url(#SVGID_2_)">
		<path d="M231.6,19.7c0.7,0,1.1-0.1,1.3-0.3c0.2-0.1,0.3-0.5,0.3-1.1v-7.1c0-0.6-0.1-1-0.3-1.1c-0.2-0.2-0.6-0.3-1.3-0.3V9.4h4.7
			v0.3c-0.7,0-1.1,0.1-1.3,0.3c-0.2,0.2-0.3,0.5-0.3,1.1v7.1c0,0.6,0.1,1,0.3,1.1c0.2,0.1,0.6,0.2,1.3,0.3V20h-4.7V19.7z"/>
		<path d="M239.4,19.1C239.4,19.1,239.4,19.1,239.4,19.1l0,5.5c0,0.2,0.1,0.4,0.2,0.4s0.4,0.1,0.7,0.1v0.1h-2.6v-0.1
			c0.4,0,0.6-0.1,0.7-0.2s0.2-0.3,0.2-0.5v-4.2c0-0.1,0-0.3-0.1-0.3c0-0.1-0.1-0.1-0.2-0.1c-0.1,0-0.2,0-0.3,0.1s-0.2,0.1-0.4,0.1
			v-0.1L239.4,19.1L239.4,19.1C239.4,19.1,239.4,19.1,239.4,19.1z"/>
	</g>
	<g clip-path="url(#SVGID_2_)">
		<path d="M114.6,118.7c0.7,0,1.1-0.1,1.3-0.3c0.2-0.1,0.3-0.5,0.3-1.1v-7.1c0-0.6-0.1-1-0.3-1.1c-0.2-0.2-0.6-0.3-1.3-0.3v-0.3h4.7
			v0.3c-0.7,0-1.1,0.1-1.3,0.3c-0.2,0.2-0.3,0.5-0.3,1.1v7.1c0,0.6,0.1,1,0.3,1.1c0.2,0.1,0.6,0.2,1.3,0.3v0.3h-4.7V118.7z"/>
		<path d="M119.9,124.2c1.1-1.2,1.9-2,2.3-2.5s0.6-1.1,0.6-1.6c0-0.4-0.1-0.8-0.4-1c-0.2-0.2-0.5-0.4-0.9-0.4c-0.4,0-0.8,0.2-1,0.5
			c-0.1,0.2-0.3,0.4-0.4,0.8l-0.2,0c0.2-0.7,0.4-1.2,0.8-1.5c0.4-0.3,0.8-0.4,1.2-0.4c0.5,0,0.9,0.2,1.2,0.5
			c0.3,0.3,0.5,0.7,0.5,1.2c0,0.5-0.2,1-0.5,1.4s-1.1,1.3-2.2,2.5h2.1c0.3,0,0.5,0,0.6-0.1c0.1-0.1,0.3-0.2,0.4-0.5l0.1,0.1
			l-0.5,1.3h-3.6V124.2z"/>
	</g>
	<g clip-path="url(#SVGID_2_)">
		<path d="M222.6,118.7c0.7,0,1.1-0.1,1.3-0.3c0.2-0.1,0.3-0.5,0.3-1.1v-7.1c0-0.6-0.1-1-0.3-1.1c-0.2-0.2-0.6-0.3-1.3-0.3v-0.3h4.7
			v0.3c-0.7,0-1.1,0.1-1.3,0.3c-0.2,0.2-0.3,0.5-0.3,1.1v7.1c0,0.6,0.1,1,0.3,1.1c0.2,0.1,0.6,0.2,1.3,0.3v0.3h-4.7V118.7z"/>
		<path d="M227.9,124.2c1.1-1.2,1.9-2,2.3-2.5c0.4-0.5,0.6-1.1,0.6-1.6c0-0.4-0.1-0.8-0.4-1c-0.2-0.2-0.5-0.4-0.9-0.4
			c-0.4,0-0.8,0.2-1,0.5c-0.1,0.2-0.3,0.4-0.4,0.8l-0.2,0c0.2-0.7,0.4-1.2,0.8-1.5c0.4-0.3,0.8-0.4,1.2-0.4c0.5,0,0.9,0.2,1.2,0.5
			c0.3,0.3,0.5,0.7,0.5,1.2c0,0.5-0.2,1-0.5,1.4c-0.3,0.5-1.1,1.3-2.2,2.5h2.1c0.3,0,0.5,0,0.6-0.1c0.1-0.1,0.3-0.2,0.4-0.5l0.1,0.1
			l-0.5,1.3h-3.6V124.2z"/>
	</g>
	<g clip-path="url(#SVGID_2_)">
		<path d="M123.6,208.7c0.7,0,1.1-0.1,1.3-0.3c0.2-0.1,0.3-0.5,0.3-1.1v-7.1c0-0.6-0.1-1-0.3-1.1c-0.2-0.2-0.6-0.3-1.3-0.3v-0.3h4.7
			v0.3c-0.7,0-1.1,0.1-1.3,0.3c-0.2,0.2-0.3,0.5-0.3,1.1v7.1c0,0.6,0.1,1,0.3,1.1c0.2,0.1,0.6,0.2,1.3,0.3v0.3h-4.7V208.7z"/>
		<path d="M130.1,213.8c0.3,0.2,0.5,0.3,0.7,0.3c0.4,0,0.7-0.1,0.9-0.4c0.2-0.3,0.3-0.6,0.3-0.9c0-0.3-0.1-0.6-0.3-0.9
			c-0.3-0.4-0.8-0.6-1.4-0.6c0,0-0.1,0-0.1,0c0,0-0.1,0-0.1,0l0-0.1c0.5-0.2,0.9-0.4,1.1-0.6c0.3-0.2,0.4-0.5,0.4-0.9
			c0-0.3-0.1-0.6-0.3-0.8s-0.5-0.3-0.8-0.3c-0.3,0-0.6,0.1-0.9,0.4c-0.1,0.1-0.3,0.3-0.5,0.6l-0.1,0c0.1-0.5,0.3-0.8,0.7-1.1
			s0.7-0.4,1.1-0.4c0.5,0,0.8,0.1,1.1,0.4c0.3,0.3,0.4,0.5,0.4,0.9c0,0.3-0.1,0.6-0.3,0.8c-0.1,0.1-0.3,0.3-0.6,0.5
			c0.3,0.1,0.5,0.3,0.7,0.4c0.3,0.3,0.5,0.7,0.5,1.2c0,0.6-0.2,1.1-0.7,1.5s-1.1,0.7-1.9,0.7c-0.4,0-0.6-0.1-0.8-0.2
			c-0.2-0.1-0.2-0.2-0.2-0.4c0-0.1,0-0.2,0.1-0.2c0.1-0.1,0.1-0.1,0.2-0.1C129.6,213.5,129.8,213.6,130.1,213.8z"/>
	</g>
	<g clip-path="url(#SVGID_2_)">
		<path d="M231.6,211.7c0.7,0,1.1-0.1,1.3-0.3c0.2-0.1,0.3-0.5,0.3-1.1v-7.1c0-0.6-0.1-1-0.3-1.1c-0.2-0.2-0.6-0.3-1.3-0.3v-0.3h4.7
			v0.3c-0.7,0-1.1,0.1-1.3,0.3c-0.2,0.2-0.3,0.5-0.3,1.1v7.1c0,0.6,0.1,1,0.3,1.1c0.2,0.1,0.6,0.2,1.3,0.3v0.3h-4.7V211.7z"/>
		<path d="M238.1,216.8c0.3,0.2,0.5,0.3,0.7,0.3c0.4,0,0.7-0.1,0.9-0.4c0.2-0.3,0.3-0.6,0.3-0.9c0-0.3-0.1-0.6-0.3-0.9
			c-0.3-0.4-0.8-0.6-1.4-0.6c0,0-0.1,0-0.1,0c0,0-0.1,0-0.1,0l0-0.1c0.5-0.2,0.9-0.4,1.1-0.6c0.3-0.2,0.4-0.5,0.4-0.9
			c0-0.3-0.1-0.6-0.3-0.8s-0.5-0.3-0.8-0.3c-0.3,0-0.6,0.1-0.9,0.4c-0.1,0.1-0.3,0.3-0.5,0.6l-0.1,0c0.1-0.5,0.3-0.8,0.7-1.1
			s0.7-0.4,1.1-0.4c0.5,0,0.8,0.1,1.1,0.4c0.3,0.3,0.4,0.5,0.4,0.9c0,0.3-0.1,0.6-0.3,0.8c-0.1,0.1-0.3,0.3-0.6,0.5
			c0.3,0.1,0.5,0.3,0.7,0.4c0.3,0.3,0.5,0.7,0.5,1.2c0,0.6-0.2,1.1-0.7,1.5s-1.1,0.7-1.9,0.7c-0.4,0-0.6-0.1-0.8-0.2
			c-0.2-0.1-0.2-0.2-0.2-0.4c0-0.1,0-0.2,0.1-0.2c0.1-0.1,0.1-0.1,0.2-0.1C237.6,216.5,237.8,216.6,238.1,216.8z"/>
	</g>
</g>
</svg>
